HIERARCHY
ROOT Hips
{
  OFFSET 51.5778 96.147 -3.59906
  CHANNELS 6 Xposition Yposition Zposition Zrotation Xrotation Yrotation
  JOINT spine
  {
    OFFSET 0 8.13249 0.467659
    CHANNELS 3 Zrotation Xrotation Yrotation
    JOINT spine1
    {
      OFFSET 0 10.3498 0
      CHANNELS 3 Zrotation Xrotation Yrotation
      JOINT spine2
      {
        OFFSET 0 9.91699 0
        CHANNELS 3 Zrotation Xrotation Yrotation
        JOINT Neck
        {
          OFFSET 0 25.461 1.2139
          CHANNELS 3 Zrotation Xrotation Yrotation
          JOINT Head
          {
            OFFSET 0 7.69245 0
            CHANNELS 3 Zrotation Xrotation Yrotation
            End Site
            {
              OFFSET 0 18.62 -6.14063
            }
          }
        }
        JOINT RightShoulder
        {
          OFFSET -4.17575 10.7096 -0.581445
          CHANNELS 3 Zrotation Xrotation Yrotation
          JOINT RightArm
          {
            OFFSET 0 14.0466 0
            CHANNELS 3 Zrotation Xrotation Yrotation
            JOINT RightArmRoll
            {
              OFFSET 0 7.09099 0
              CHANNELS 3 Zrotation Xrotation Yrotation
              JOINT RightForeArm
              {
                OFFSET 0 20.6535 0
                CHANNELS 3 Zrotation Xrotation Yrotation
                JOINT RightForeArmRoll
                {
                  OFFSET 0 7.95718 0
                  CHANNELS 3 Zrotation Xrotation Yrotation
                  JOINT RightHand
                  {
                    OFFSET 0 15.9683 0
                    CHANNELS 3 Zrotation Xrotation Yrotation
                    End Site
                    {
                      OFFSET 0 0 0
                    }
                  }
                }
              }
            }
          }
        }
        JOINT LeftShoulder
        {
          OFFSET 4.17575 10.7096 -0.581445
          CHANNELS 3 Zrotation Xrotation Yrotation
          JOINT LeftArm
          {
            OFFSET 0 14.0466 0
            CHANNELS 3 Zrotation Xrotation Yrotation
            JOINT LeftArmRoll
            {
              OFFSET 0 7.09098 0
              CHANNELS 3 Zrotation Xrotation Yrotation
              JOINT LeftForeArm
              {
                OFFSET 0 20.6535 0
                CHANNELS 3 Zrotation Xrotation Yrotation
                JOINT LeftForeArmRoll
                {
                  OFFSET 0 7.95718 0
                  CHANNELS 3 Zrotation Xrotation Yrotation
                  JOINT LeftHand
                  {
                    OFFSET 0 15.9683 0
                    CHANNELS 3 Zrotation Xrotation Yrotation
                    End Site
                    {
                      OFFSET 0 0 0
                    }
                  }
                }
              }
            }
          }
        }
      }
    }
  }
  JOINT RightUpLeg
  {
    OFFSET -7.20834 -1.32182 -1.10884
    CHANNELS 3 Zrotation Xrotation Yrotation
    JOINT RightUpLegRoll
    {
      OFFSET 0 18.7238 0
      CHANNELS 3 Zrotation Xrotation Yrotation
      JOINT RightLeg
      {
        OFFSET 0 -23.1866 0
        CHANNELS 3 Zrotation Xrotation Yrotation
        JOINT RightLegRoll
        {
          OFFSET 0 23.2624 0
          CHANNELS 3 Zrotation Xrotation Yrotation
          JOINT RightFoot
          {
            OFFSET 0 19.3621 0
            CHANNELS 3 Zrotation Xrotation Yrotation
            JOINT RightToeBase
            {
              OFFSET 0 16.1857 0
              CHANNELS 3 Zrotation Xrotation Yrotation
              End Site
              {
                OFFSET 0.00686052 7.83863 -0.903522
              }
            }
          }
        }
      }
    }
  }
  JOINT LeftUpLeg
  {
    OFFSET 7.20834 -1.32182 -1.10884
    CHANNELS 3 Zrotation Xrotation Yrotation
    JOINT LeftUpLegRoll
    {
      OFFSET 0 18.7239 0
      CHANNELS 3 Zrotation Xrotation Yrotation
      JOINT LeftLeg
      {
        OFFSET 0 23.1865 0
        CHANNELS 3 Zrotation Xrotation Yrotation
        JOINT LeftLegRoll
        {
          OFFSET 0 23.4775 0
          CHANNELS 3 Zrotation Xrotation Yrotation
          JOINT LeftFoot
          {
            OFFSET 0 19.147 0
            CHANNELS 3 Zrotation Xrotation Yrotation
            JOINT LeftToeBase
            {
              OFFSET 0 16.1857 0
              CHANNELS 3 Zrotation Xrotation Yrotation
              End Site
              {
                OFFSET -0.0307459 7.83863 -0.903521
              }
            }
          }
        }
      }
    }
  }
}
MOTION
Frames: 11
Frame Time: 0.00208333
55.0833 84.74 9.32395 -0.547714 -5.15236 1.62553 0.683463 -0.362774 0.262516 1.36799 3.27952 0.440447 1.36447 4.9243 0.417898 4.45218 1.26815 -5.9933 -12.3869 10.3079 -5.52084 19.8044 -25.2262 -25.6819 -18.2806 41.0139 134.735 -7.01434e-007 2.72869e-006 -1.88899e-006 -12.918 55.1833 15.3011 -8.92835e-006 -1.14419e-006 -3 8.02931 -4.95143 0.697682 -24.6718 -22.2343 20.5358 16.1902 32.6614 -130.572 -1.37178e-005 -4.56204e-006 3.87137e-006 11.7247 41.316 -9.50722 -8.52251e-007 2.7405e-006 3.00382 -8.02909 -4.95145 -0.697681 161.452 19.3397 5.73414 180 7.01568e-015 179.016 -165.178 50.0717 171.635 -1.98147e-006 1.70916e-006 3.93968 -50.2919 83.3156 58.0616 8.14049 25.4096 -3.28116 -163.607 16.6888 -1.19144 4.54188e-006 -4.6773e-006 -1.50547 19.8587 -51.7924 9.90982 1.96819e-006 -3.05593e-006 -6.06573 68.2914 84.1756 -75.1607 -8.18398 26.7102 1.92449 
55.1341 84.5055 9.30887 -0.628879 -5.09849 1.65547 0.692873 -0.356063 0.260154 1.38683 3.29293 0.434472 1.38342 4.93771 0.411602 4.80278 0.951028 -5.99738 -12.7574 10.5352 -5.45749 20.095 -25.3455 -25.7478 -18.9673 40.6249 135.171 -7.01434e-007 2.72869e-006 -1.88899e-006 -12.7942 55.6023 15.3481 -8.92835e-006 -1.14419e-006 -3.00001 8.02931 -4.95143 0.697682 -24.424 -22.3093 20.6871 16.4394 32.5182 -131.092 -1.37178e-005 -4.56204e-006 3.87137e-006 11.5324 41.823 -9.57832 -8.52251e-007 2.7405e-006 3.0038 -8.02909 -4.95145 -0.697681 161.452 19.6119 5.75227 180 7.01571e-015 179.033 -164.999 50.5484 171.411 -1.98147e-006 1.70918e-006 3.94709 -51.0666 83.4608 59.1019 8.14265 25.4431 -3.24468 -163.508 17.0152 -1.2376 4.54188e-006 -4.6773e-006 -1.51072 20.1532 -52.2966 10.1546 1.96819e-006 -3.05595e-006 -6.16497 70.5923 84.2807 -77.5682 -8.1831 26.6716 1.96586 
55.1472 84.2914 9.26585 -0.705816 -5.04911 1.68582 0.700669 -0.349661 0.257556 1.40245 3.30573 0.42823 1.39914 4.9505 0.405093 5.16057 0.665327 -6.00234 -13.1216 10.7305 -5.39621 20.3812 -25.4554 -25.8027 -19.6047 40.2409 135.549 -7.01434e-007 2.72869e-006 -1.88899e-006 -12.6688 56.0111 15.3884 -8.92835e-006 -1.14419e-006 -3.00001 8.02931 -4.95143 0.697682 -24.1631 -22.3775 20.8348 16.6643 32.3796 -131.579 -1.37178e-005 -4.56204e-006 3.87137e-006 11.3453 42.3077 -9.64513 -8.52251e-007 2.7405e-006 3.00378 -8.02909 -4.95145 -0.697681 161.452 19.8717 5.77009 180 7.01574e-015 179.048 -164.821 51.0044 171.194 -1.98147e-006 1.7092e-006 3.95753 -51.8768 83.5965 60.1554 8.14457 25.4735 -3.21154 -163.415 17.3319 -1.28024 4.54188e-006 -4.6773e-006 -1.51563 20.4462 -52.7832 10.3995 1.96819e-006 -3.05596e-006 -6.25873 72.7931 84.3686 -79.869 -8.18231 26.6386 2.0014 
54.9833 84.1879 9.13999 -0.777554 -5.00523 1.71647 0.70671 -0.343564 0.254734 1.41455 3.31791 0.421766 1.41134 4.96268 0.39842 5.52244 0.416515 -6.0079 -13.4748 10.8888 -5.33774 20.6562 -25.5542 -25.8462 -20.185 39.865 135.866 -7.01434e-007 2.72869e-006 -1.88899e-006 -12.5428 56.4073 15.4225 -8.92835e-006 -1.14419e-006 -3.00001 8.02931 -4.95143 0.697682 -23.8889 -22.4378 20.9775 16.8639 32.2459 -132.032 -1.37178e-005 -4.56204e-006 3.87137e-006 11.1657 42.7643 -9.70701 -8.52251e-007 2.7405e-006 3.00375 -8.02909 -4.95145 -0.697681 161.451 20.1175 5.78727 180 7.01577e-015 179.061 -164.645 51.4388 170.988 -1.98147e-006 1.70922e-006 3.97279 -52.7542 83.7237 61.2497 8.14614 25.4987 -3.18397 -163.329 17.6373 -1.31862 4.54188e-006 -4.6773e-006 -1.52021 20.7373 -53.2511 10.644 1.96819e-006 -3.05596e-006 -6.34687 74.874 84.4407 -82.0431 -8.18166 26.6112 2.03114 
55.0436 83.9504 9.12109 -0.84312 -4.96784 1.74734 0.710854 -0.337769 0.251703 1.42286 3.32948 0.415126 1.41974 4.97425 0.391634 5.8853 0.210059 -6.0138 -13.8124 11.0047 -5.28284 20.9134 -25.6402 -25.878 -20.7009 39.5001 136.118 -7.01434e-007 2.72869e-006 -1.88899e-006 -12.4176 56.7885 15.4506 -8.92835e-006 -1.14419e-006 -3.00001 8.02931 -4.95143 0.697682 -23.6013 -22.4887 21.1136 17.0372 32.1172 -132.447 -1.37178e-005 -4.56204e-006 3.87137e-006 10.9957 43.1869 -9.76326 -8.52251e-007 2.7405e-006 3.00373 -8.02909 -4.95145 -0.697681 161.449 20.3476 5.80345 180 7.01579e-015 179.072 -164.471 51.8506 170.792 -1.98147e-006 1.70923e-006 3.99465 -53.7331 83.8433 62.4152 8.14725 25.5165 -3.1642 -163.25 17.9298 -1.35197 4.54188e-006 -4.6773e-006 -1.52446 21.0264 -53.6993 10.8877 1.96819e-006 -3.05594e-006 -6.42925 76.8169 84.4985 -84.0719 -8.18119 26.5893 2.05507 
55.0853 83.9072 9.19 -0.901536 -4.93796 1.77831 0.712959 -0.332272 0.248474 1.42708 3.34045 0.408354 1.42405 4.98521 0.384785 6.24604 0.0514269 -6.01976 -14.1298 11.0731 -5.23226 21.1459 -25.7117 -25.8979 -21.1449 39.1489 136.299 -7.01434e-007 2.72869e-006 -1.88899e-006 -12.2943 57.1525 15.473 -8.92835e-006 -1.14419e-006 -3.00001 8.02931 -4.95143 0.697682 -23.3003 -22.529 21.2417 17.1832 31.994 -132.82 -1.37178e-005 -4.56204e-006 3.87137e-006 10.8375 43.5697 -9.81314 -8.52251e-007 2.7405e-006 3.00371 -8.02909 -4.95145 -0.697681 161.448 20.5604 5.8183 180 7.0158e-015 179.08 -164.299 52.2388 170.612 -1.98147e-006 1.70924e-006 4.02488 -54.8506 83.9556 63.685 8.14781 25.5251 -3.15448 -163.179 18.2078 -1.37954 4.54188e-006 -4.6773e-006 -1.52838 21.313 -54.1269 11.1299 1.96818e-006 -3.05591e-006 -6.50572 78.6059 84.5432 -85.9395 -8.18094 26.573 2.07319 
55.0752 83.6834 9.12246 -0.953364 -4.91601 1.81017 0.712272 -0.327054 0.24474 1.42571 3.35085 0.400923 1.42277 4.99561 0.377371 6.62587 -0.0528634 -6.02707 -14.4427 11.0869 -5.18411 21.3758 -25.7677 -25.8974 -21.5295 38.8069 136.404 -7.01434e-007 2.72869e-006 -1.88899e-006 -12.1618 57.5116 15.482 -8.92835e-006 -1.14419e-006 -3.00001 8.02931 -4.95143 0.697682 -22.9715 -22.5589 21.3657 17.2954 31.8819 -133.15 -1.37178e-005 -4.56204e-006 3.87137e-006 10.6803 43.9272 -9.85391 -8.52251e-007 2.7405e-006 3.00369 -8.02909 -4.95145 -0.697681 161.447 20.7574 5.83123 180 7.01582e-015 179.086 -164.13 52.606 170.443 -1.98147e-006 1.70924e-006 4.06209 -56.0441 84.058 64.9978 8.14803 25.528 -3.15081 -163.116 18.4743 -1.40243 4.54188e-006 -4.6773e-006 -1.53182 21.597 -54.538 11.3721 1.96818e-006 -3.05586e-006 -6.57563 80.167 84.5767 -87.5711 -8.18095 26.5649 2.08273 
55.1125 83.618 9.07755 -1.00013 -4.90116 1.84361 0.708403 -0.322101 0.240258 1.41797 3.36071 0.392397 1.41513 5.00547 0.368966 7.04389 -0.104348 -6.03692 -14.7676 11.0469 -5.13611 21.6271 -25.8094 -25.8708 -21.8749 38.4689 136.435 -7.01434e-007 2.72869e-006 -1.88899e-006 -12.0097 57.8778 15.4709 -8.92835e-006 -1.14419e-006 -3.00001 8.02931 -4.95143 0.697682 -22.6047 -22.5802 21.4904 17.3713 31.7859 -133.442 -1.37178e-005 -4.56204e-006 3.87137e-006 10.5132 44.277 -9.88401 -8.52251e-007 2.7405e-006 3.00366 -8.02909 -4.95145 -0.697681 161.446 20.9414 5.8422 180 7.01582e-015 179.089 -163.964 52.9556 170.283 -1.98147e-006 1.70924e-006 4.10318 -57.2174 84.148 66.2632 8.14822 25.5303 -3.14768 -163.06 18.7336 -1.42232 4.54188e-006 -4.6773e-006 -1.53466 21.8784 -54.9364 11.6158 1.96817e-006 -3.05583e-006 -6.63866 81.443 84.6016 -88.9092 -8.18126 26.5671 2.08166 
55.1349 83.4309 9.05602 -1.0423 -4.89249 1.87839 0.701758 -0.317424 0.235144 1.40467 3.37 0.382951 1.40193 5.01477 0.359735 7.49391 -0.109648 -6.04893 -15.1015 10.9598 -5.08852 21.8959 -25.8384 -25.8213 -22.1848 38.1362 136.4 -7.01434e-007 2.72869e-006 -1.88899e-006 -11.8406 58.2479 15.4417 -8.92835e-006 -1.14419e-006 -3.00001 8.02931 -4.95143 0.697682 -22.2059 -22.5938 21.6152 17.4154 31.7054 -133.698 -1.37178e-005 -4.56204e-006 3.87137e-006 10.3384 44.6174 -9.90451 -8.52251e-007 2.7405e-006 3.00364 -8.02909 -4.95145 -0.697681 161.446 21.1131 5.85163 180 7.01583e-015 179.091 -163.802 53.2873 170.132 -1.98147e-006 1.70925e-006 4.14742 -58.3592 84.2265 67.4721 8.14837 25.5322 -3.14506 -163.009 18.9856 -1.43926 4.54188e-006 -4.6773e-006 -1.53695 22.1565 -55.3215 11.8601 1.96817e-006 -3.05581e-006 -6.69518 82.448 84.6201 -89.9682 -8.18182 26.5784 2.0711 
55.1029 83.3649 9.06788 -1.08034 -4.88909 1.91427 0.692741 -0.313035 0.22951 1.38663 3.3787 0.372763 1.38399 5.02349 0.34984 7.96979 -0.0753827 -6.06274 -15.4413 10.8323 -5.04157 22.1785 -25.8565 -25.7526 -22.4628 37.8097 136.308 -7.01434e-007 2.72869e-006 -1.88899e-006 -11.6572 58.6186 15.3964 -8.92835e-006 -1.14419e-006 -3.00001 8.02931 -4.95143 0.697682 -21.7811 -22.6007 21.7395 17.4323 31.6395 -133.923 -1.37178e-005 -4.56204e-006 3.87137e-006 10.1579 44.9471 -9.91647 -8.52251e-007 2.7405e-006 3.00362 -8.02909 -4.95145 -0.697681 161.445 21.2731 5.85996 180 7.01583e-015 179.092 -163.645 53.6009 169.991 -1.98147e-006 1.70925e-006 4.19406 -59.4589 84.2943 68.6164 8.1485 25.5336 -3.1429 -162.963 19.2303 -1.45331 4.54188e-006 -4.6773e-006 -1.53875 22.4309 -55.6924 12.104 1.96817e-006 -3.05579e-006 -6.74555 83.1994 84.6339 -90.7661 -8.18259 26.5977 2.05215 
55.13 83.1991 9.03457 -1.11474 -4.89006 1.95103 0.68176 -0.308944 0.223471 1.36465 3.38681 0.362011 1.36212 5.0316 0.339447 8.46533 -0.00817312 -6.07798 -15.7838 10.6709 -4.99552 22.4713 -25.8653 -25.6682 -22.7121 37.4903 136.165 -7.01434e-007 2.72869e-006 -1.88899e-006 -11.4624 58.9867 15.3371 -8.92835e-006 -1.14419e-006 -3.00001 8.02931 -4.95143 0.697682 -21.3361 -22.6016 21.8626 17.4261 31.587 -134.119 -1.37178e-005 -4.56204e-006 3.87137e-006 9.97391 45.2644 -9.921 -8.52251e-007 2.7405e-006 3.0036 -8.02909 -4.95145 -0.697681 161.444 21.422 5.86763 180 7.01583e-015 179.091 -163.494 53.8963 169.859 -1.98147e-006 1.70925e-006 4.24236 -60.5068 84.3522 69.6886 8.14859 25.5346 -3.14117 -162.922 19.4676 -1.46452 4.54188e-006 -4.6773e-006 -1.54013 22.7008 -56.0482 12.3465 1.96817e-006 -3.05578e-006 -6.79014 83.7166 84.6443 -91.3228 -8.18352 26.6241 2.02593 
